<?xml version="1.0" encoding="UTF-8" standalone="no"?>
<!DOCTYPE svg PUBLIC "-//W3C//DTD SVG 1.1//EN"
 "http://www.w3.org/Graphics/SVG/1.1/DTD/svg11.dtd">
<!-- Generated by graphviz version 2.47.0 (20210316.0004)
 -->
<!-- Title: dependencies Pages: 1 -->
<svg width="1139pt" height="284pt"
 viewBox="0.00 0.00 1139.00 284.00" xmlns="http://www.w3.org/2000/svg" xmlns:xlink="http://www.w3.org/1999/xlink">
<g id="graph0" class="graph" transform="scale(1 1) rotate(0) translate(4 280)">
<title>dependencies</title>
<polygon fill="white" stroke="transparent" points="-4,4 -4,-280 1135,-280 1135,4 -4,4"/>
<text text-anchor="start" x="544.51" y="-42.4" font-family="sans-serif" font-weight="bold" font-size="14.00">Legend</text>
<polygon fill="#ffffb3" stroke="transparent" points="331.5,-10 331.5,-30 351.5,-30 351.5,-10 331.5,-10"/>
<text text-anchor="start" x="355.13" y="-15.4" font-family="sans-serif" font-size="14.00"> &#160;Declarations</text>
<polygon fill="#8dd3c7" stroke="transparent" points="444.5,-10 444.5,-30 464.5,-30 464.5,-10 444.5,-10"/>
<text text-anchor="start" x="468.23" y="-15.4" font-family="sans-serif" font-size="14.00"> &#160;Module</text>
<polygon fill="#80b1d3" stroke="transparent" points="530.5,-10 530.5,-30 550.5,-30 550.5,-10 530.5,-10"/>
<text text-anchor="start" x="554.28" y="-15.4" font-family="sans-serif" font-size="14.00"> &#160;Bootstrap</text>
<polygon fill="#fdb462" stroke="transparent" points="627.5,-10 627.5,-30 647.5,-30 647.5,-10 627.5,-10"/>
<text text-anchor="start" x="651.17" y="-15.4" font-family="sans-serif" font-size="14.00"> &#160;Providers</text>
<polygon fill="#fb8072" stroke="transparent" points="723.5,-10 723.5,-30 743.5,-30 743.5,-10 723.5,-10"/>
<text text-anchor="start" x="747.23" y="-15.4" font-family="sans-serif" font-size="14.00"> &#160;Exports</text>
<g id="clust1" class="cluster">
<title>cluster_AppModule</title>
<polygon fill="none" stroke="black" stroke-dasharray="1,5" points="8,-70 8,-268 1123,-268 1123,-70 8,-70"/>
</g>
<g id="clust10" class="cluster">
<title>cluster_AppModule_imports</title>
<polygon fill="none" stroke="black" points="971,-78 971,-130 1115,-130 1115,-78 971,-78"/>
</g>
<g id="clust12" class="cluster">
<title>cluster_AppModule_bootstrap</title>
<polygon fill="none" stroke="black" points="491,-208 491,-260 615,-260 615,-208 491,-208"/>
</g>
<g id="clust2" class="cluster">
<title>cluster_AppModule_declarations</title>
<polygon fill="none" stroke="black" points="16,-78 16,-130 963,-130 963,-78 16,-78"/>
</g>
<!-- AppComponent -->
<g id="node1" class="node">
<title>AppComponent</title>
<polygon fill="#ffffb3" stroke="black" points="954.94,-122 849.06,-122 849.06,-86 954.94,-86 954.94,-122"/>
<text text-anchor="middle" x="902" y="-99.8" font-family="Times,serif" font-size="14.00">AppComponent</text>
</g>
<!-- AppModule -->
<g id="node8" class="node">
<title>AppModule</title>
<polygon fill="#8dd3c7" stroke="black" points="594.66,-187 591.66,-191 570.66,-191 567.66,-187 511.34,-187 511.34,-151 594.66,-151 594.66,-187"/>
<text text-anchor="middle" x="553" y="-164.8" font-family="Times,serif" font-size="14.00">AppModule</text>
</g>
<!-- AppComponent&#45;&gt;AppModule -->
<g id="edge1" class="edge">
<title>AppComponent&#45;&gt;AppModule</title>
<path fill="none" stroke="black" d="M902,-122.11C902,-141.34 902,-169 902,-169 902,-169 604.75,-169 604.75,-169"/>
<polygon fill="black" stroke="black" points="604.75,-165.5 594.75,-169 604.75,-172.5 604.75,-165.5"/>
</g>
<!-- CadastrarComponent -->
<g id="node2" class="node">
<title>CadastrarComponent</title>
<polygon fill="#ffffb3" stroke="black" points="831.47,-122 696.53,-122 696.53,-86 831.47,-86 831.47,-122"/>
<text text-anchor="middle" x="764" y="-99.8" font-family="Times,serif" font-size="14.00">CadastrarComponent</text>
</g>
<!-- CadastrarComponent&#45;&gt;AppModule -->
<g id="edge2" class="edge">
<title>CadastrarComponent&#45;&gt;AppModule</title>
<path fill="none" stroke="black" d="M764,-122.03C764,-138.4 764,-160 764,-160 764,-160 604.69,-160 604.69,-160"/>
<polygon fill="black" stroke="black" points="604.69,-156.5 594.69,-160 604.69,-163.5 604.69,-156.5"/>
</g>
<!-- EntrarComponent -->
<g id="node3" class="node">
<title>EntrarComponent</title>
<polygon fill="#ffffb3" stroke="black" points="678.31,-122 561.69,-122 561.69,-86 678.31,-86 678.31,-122"/>
<text text-anchor="middle" x="620" y="-99.8" font-family="Times,serif" font-size="14.00">EntrarComponent</text>
</g>
<!-- EntrarComponent&#45;&gt;AppModule -->
<g id="edge3" class="edge">
<title>EntrarComponent&#45;&gt;AppModule</title>
<path fill="none" stroke="black" d="M578.34,-122.11C578.34,-122.11 578.34,-140.99 578.34,-140.99"/>
<polygon fill="black" stroke="black" points="574.84,-140.99 578.34,-150.99 581.84,-140.99 574.84,-140.99"/>
</g>
<!-- MenuComponent -->
<g id="node4" class="node">
<title>MenuComponent</title>
<polygon fill="#ffffb3" stroke="black" points="543.99,-122 430.01,-122 430.01,-86 543.99,-86 543.99,-122"/>
<text text-anchor="middle" x="487" y="-99.8" font-family="Times,serif" font-size="14.00">MenuComponent</text>
</g>
<!-- MenuComponent&#45;&gt;AppModule -->
<g id="edge4" class="edge">
<title>MenuComponent&#45;&gt;AppModule</title>
<path fill="none" stroke="black" d="M527.58,-122.11C527.58,-122.11 527.58,-140.99 527.58,-140.99"/>
<polygon fill="black" stroke="black" points="524.08,-140.99 527.58,-150.99 531.08,-140.99 524.08,-140.99"/>
</g>
<!-- RodapeComponent -->
<g id="node5" class="node">
<title>RodapeComponent</title>
<polygon fill="#ffffb3" stroke="black" points="412.1,-122 287.9,-122 287.9,-86 412.1,-86 412.1,-122"/>
<text text-anchor="middle" x="350" y="-99.8" font-family="Times,serif" font-size="14.00">RodapeComponent</text>
</g>
<!-- RodapeComponent&#45;&gt;AppModule -->
<g id="edge5" class="edge">
<title>RodapeComponent&#45;&gt;AppModule</title>
<path fill="none" stroke="black" d="M350,-122.03C350,-138.4 350,-160 350,-160 350,-160 500.94,-160 500.94,-160"/>
<polygon fill="black" stroke="black" points="500.94,-163.5 510.94,-160 500.94,-156.5 500.94,-163.5"/>
</g>
<!-- SobreComponent -->
<g id="node6" class="node">
<title>SobreComponent</title>
<polygon fill="#ffffb3" stroke="black" points="269.99,-122 156.01,-122 156.01,-86 269.99,-86 269.99,-122"/>
<text text-anchor="middle" x="213" y="-99.8" font-family="Times,serif" font-size="14.00">SobreComponent</text>
</g>
<!-- SobreComponent&#45;&gt;AppModule -->
<g id="edge6" class="edge">
<title>SobreComponent&#45;&gt;AppModule</title>
<path fill="none" stroke="black" d="M213,-122.11C213,-141.34 213,-169 213,-169 213,-169 501.31,-169 501.31,-169"/>
<polygon fill="black" stroke="black" points="501.31,-172.5 511.31,-169 501.31,-165.5 501.31,-172.5"/>
</g>
<!-- TemaComponent -->
<g id="node7" class="node">
<title>TemaComponent</title>
<polygon fill="#ffffb3" stroke="black" points="137.7,-122 24.3,-122 24.3,-86 137.7,-86 137.7,-122"/>
<text text-anchor="middle" x="81" y="-99.8" font-family="Times,serif" font-size="14.00">TemaComponent</text>
</g>
<!-- TemaComponent&#45;&gt;AppModule -->
<g id="edge7" class="edge">
<title>TemaComponent&#45;&gt;AppModule</title>
<path fill="none" stroke="black" d="M81,-122.29C81,-144.21 81,-178 81,-178 81,-178 501.11,-178 501.11,-178"/>
<polygon fill="black" stroke="black" points="501.11,-181.5 511.11,-178 501.11,-174.5 501.11,-181.5"/>
</g>
<!-- AppComponent  -->
<g id="node10" class="node">
<title>AppComponent </title>
<polygon fill="#80b1d3" stroke="black" points="607.44,-252 498.56,-252 498.56,-216 607.44,-216 607.44,-252"/>
<text text-anchor="middle" x="553" y="-229.8" font-family="Times,serif" font-size="14.00">AppComponent </text>
</g>
<!-- AppModule&#45;&gt;AppComponent  -->
<g id="edge9" class="edge">
<title>AppModule&#45;&gt;AppComponent </title>
<path fill="none" stroke="black" stroke-dasharray="1,5" d="M553,-187.11C553,-187.11 553,-205.99 553,-205.99"/>
<polygon fill="black" stroke="black" points="549.5,-205.99 553,-215.99 556.5,-205.99 549.5,-205.99"/>
</g>
<!-- AppRoutingModule -->
<g id="node9" class="node">
<title>AppRoutingModule</title>
<polygon fill="#8dd3c7" stroke="black" points="1107.27,-122 1104.27,-126 1083.27,-126 1080.27,-122 978.73,-122 978.73,-86 1107.27,-86 1107.27,-122"/>
<text text-anchor="middle" x="1043" y="-99.8" font-family="Times,serif" font-size="14.00">AppRoutingModule</text>
</g>
<!-- AppRoutingModule&#45;&gt;AppModule -->
<g id="edge8" class="edge">
<title>AppRoutingModule&#45;&gt;AppModule</title>
<path fill="none" stroke="black" d="M1043,-122.29C1043,-144.21 1043,-178 1043,-178 1043,-178 604.78,-178 604.78,-178"/>
<polygon fill="black" stroke="black" points="604.78,-174.5 594.78,-178 604.78,-181.5 604.78,-174.5"/>
</g>
</g>
</svg>
